<?xml version="1.0" standalone="no"?>
<!DOCTYPE svg PUBLIC "-//W3C//DTD SVG 1.1//EN" "http://www.w3.org/Graphics/SVG/1.1/DTD/svg11.dtd">
<svg xmlns="http://www.w3.org/2000/svg" width="49" height="48" viewBox="0 0 49 48" fill="none">
<rect x="0.5" width="48" height="48" fill="black"/>
<path fill-rule="evenodd" clip-rule="evenodd" d="M15.4192 20.0347C15.4192 15.4626 19.3875 11.6422 24.4277 11.6422C26.4883 11.6422 27.8937 12.0437 28.9244 12.7635C29.9553 13.4834 30.744 14.6139 31.3914 16.3337C31.6011 16.8909 32.2228 17.1725 32.78 16.9628C33.3371 16.753 33.6188 16.1313 33.409 15.5742C33.2206 15.0736 33.0149 14.5989 32.7879 14.1517C34.3291 13.9506 35.6233 13.93 36.6002 14.0713C37.8642 14.2543 38.229 14.6432 38.3069 14.8366C38.3683 14.9889 38.4004 15.3671 37.9424 16.0971C37.5003 16.8017 36.7132 17.6414 35.5857 18.5544C33.3416 20.3717 29.9452 22.3226 25.9275 23.942C21.9098 25.5614 18.1099 26.5109 15.2328 26.7577C13.7873 26.8818 12.6379 26.8226 11.8307 26.6215C10.9946 26.4131 10.7554 26.1183 10.694 25.9661C10.6169 25.7748 10.6082 25.2496 11.3748 24.2547C11.8476 23.6412 12.5335 22.9624 13.4146 22.2489C13.5644 23.1396 13.8519 24.0014 14.3869 24.8985C14.6918 25.4098 15.3534 25.5772 15.8648 25.2723C16.3761 24.9674 16.5434 24.3057 16.2385 23.7944C15.5953 22.7157 15.4316 21.7145 15.4199 20.2176M15.4192 20.0347C15.4192 20.0907 15.4194 20.146 15.4198 20.2007L15.4192 20.0347ZM13.2705 19.6527C13.4839 13.9458 18.4593 9.48633 24.4277 9.48633C26.7587 9.48633 28.6473 9.9405 30.1587 10.996C30.6453 11.3357 31.079 11.7282 31.468 12.1696C33.5508 11.8203 35.4282 11.7234 36.909 11.9377C38.325 12.1426 39.769 12.6973 40.3065 14.0307C40.7505 15.1323 40.3712 16.2824 39.7686 17.2429C39.1501 18.2286 38.1632 19.2412 36.9424 20.2298C36.377 20.6877 35.7507 21.149 35.0706 21.6083C35.4292 24.4355 33.6812 27.2765 31.2253 29.116C28.9986 30.7837 25.9944 31.7927 22.8892 31.3134V37.4349C22.8892 38.0302 22.4066 38.5128 21.8113 38.5128H15.1127C14.5174 38.5128 14.0348 38.0302 14.0348 37.4349V28.9768C13.0185 28.9906 12.0952 28.9092 11.3095 28.7134C10.2093 28.4393 9.13847 27.8736 8.69447 26.772C8.16137 25.4494 8.80295 24.0603 9.66717 22.9388C10.4964 21.8626 11.743 20.7446 13.2705 19.6527ZM26.7335 25.9416C28.9894 25.0323 31.0798 24.0134 32.912 22.9544C32.6823 24.4744 31.6307 26.1188 29.9329 27.3904C27.813 28.9782 24.9288 29.7796 22.1222 28.9342C21.7957 28.8359 21.442 28.8978 21.1683 29.1012C20.8947 29.3045 20.7334 29.6254 20.7334 29.9663V36.357H16.1906V28.8263C19.2063 28.4683 22.9078 27.4835 26.7335 25.9416Z" fill="white"/>
</svg>